<mxfile host="app.diagrams.net" modified="2022-05-26T14:57:22.953Z" agent="5.0 (Windows NT 10.0; Win64; x64) AppleWebKit/537.36 (KHTML, like Gecko) Chrome/101.0.4951.67 Safari/537.36" etag="8dOujy6qupcM1QxjLfJL" version="18.1.2" type="github">
  <diagram id="nFc0npHTAtao-3yocKrN" name="Page-1">
    <mxGraphModel dx="1427" dy="629" grid="1" gridSize="10" guides="1" tooltips="1" connect="1" arrows="1" fold="1" page="1" pageScale="1" pageWidth="827" pageHeight="1169" math="0" shadow="0">
      <root>
        <mxCell id="0" />
        <mxCell id="1" parent="0" />
        <mxCell id="k4tD3nb0E1NjtqeVVozX-3" value="" style="rounded=0;whiteSpace=wrap;html=1;" parent="1" vertex="1">
          <mxGeometry x="20" y="140" width="789" height="1640" as="geometry" />
        </mxCell>
        <mxCell id="jSddGvB9Upjfdm6qV6eb-2" value="" style="rounded=0;whiteSpace=wrap;html=1;" parent="1" vertex="1">
          <mxGeometry x="20" y="80" width="790" height="80" as="geometry" />
        </mxCell>
        <mxCell id="jSddGvB9Upjfdm6qV6eb-3" value="Gallery" style="rounded=0;whiteSpace=wrap;html=1;" parent="1" vertex="1">
          <mxGeometry x="660" y="90" width="50" height="40" as="geometry" />
        </mxCell>
        <mxCell id="jSddGvB9Upjfdm6qV6eb-4" value="News &amp; Events" style="rounded=0;whiteSpace=wrap;html=1;" parent="1" vertex="1">
          <mxGeometry x="480" y="90" width="80" height="40" as="geometry" />
        </mxCell>
        <mxCell id="jSddGvB9Upjfdm6qV6eb-5" value="RAJI GARDEN" style="rounded=0;whiteSpace=wrap;html=1;" parent="1" vertex="1">
          <mxGeometry x="30" y="90" width="150" height="40" as="geometry" />
        </mxCell>
        <mxCell id="jSddGvB9Upjfdm6qV6eb-6" value="About Us" style="rounded=0;whiteSpace=wrap;html=1;" parent="1" vertex="1">
          <mxGeometry x="240" y="90" width="60" height="40" as="geometry" />
        </mxCell>
        <mxCell id="jSddGvB9Upjfdm6qV6eb-7" value="Academics" style="rounded=0;whiteSpace=wrap;html=1;" parent="1" vertex="1">
          <mxGeometry x="320" y="90" width="70" height="40" as="geometry" />
        </mxCell>
        <mxCell id="jSddGvB9Upjfdm6qV6eb-8" value="&lt;span style=&quot;&quot;&gt;Student&#39;s Life&lt;/span&gt;" style="rounded=0;whiteSpace=wrap;html=1;" parent="1" vertex="1">
          <mxGeometry x="400" y="90" width="70" height="40" as="geometry" />
        </mxCell>
        <mxCell id="jSddGvB9Upjfdm6qV6eb-12" value="&lt;div&gt;clubs &amp;amp; departments&lt;/div&gt;" style="rounded=0;whiteSpace=wrap;html=1;" parent="1" vertex="1">
          <mxGeometry x="570" y="90" width="80" height="40" as="geometry" />
        </mxCell>
        <mxCell id="jSddGvB9Upjfdm6qV6eb-16" value="materials" style="rounded=0;whiteSpace=wrap;html=1;" parent="1" vertex="1">
          <mxGeometry x="720" y="90" width="60" height="40" as="geometry" />
        </mxCell>
        <mxCell id="5KwlApKkoeZXWSo-Qxgk-2" value="image slider" style="rounded=0;whiteSpace=wrap;html=1;" parent="1" vertex="1">
          <mxGeometry x="20" y="140" width="790" height="280" as="geometry" />
        </mxCell>
        <mxCell id="6J4RI8AgOYJiSDraln3s-10" value="" style="rounded=1;whiteSpace=wrap;html=1;" parent="1" vertex="1">
          <mxGeometry x="420" y="680" width="330" height="110" as="geometry" />
        </mxCell>
        <mxCell id="GwUPbeHpnl8-l-uCTYPR-7" value="info&amp;nbsp; area" style="rounded=0;whiteSpace=wrap;html=1;" parent="1" vertex="1">
          <mxGeometry x="45" y="1130" width="200" height="490" as="geometry" />
        </mxCell>
        <mxCell id="_0ivKh7NQWCfHdYWTmic-1" value="" style="rounded=0;whiteSpace=wrap;html=1;" parent="1" vertex="1">
          <mxGeometry x="420" y="480" width="334" height="160" as="geometry" />
        </mxCell>
        <mxCell id="_0ivKh7NQWCfHdYWTmic-3" value="&lt;span style=&quot;color: rgba(0, 0, 0, 0); font-family: monospace; font-size: 0px; text-align: start;&quot;&gt;%3CmxGraphModel%3E%3Croot%3E%3CmxCell%20id%3D%220%22%2F%3E%3CmxCell%20id%3D%221%22%20parent%3D%220%22%2F%3E%3CmxCell%20id%3D%222%22%20value%3D%22admission%20poster%22%20style%3D%22text%3Bhtml%3D1%3BstrokeColor%3Dnone%3BfillColor%3Dnone%3Balign%3Dcenter%3BverticalAlign%3Dmiddle%3BwhiteSpace%3Dwrap%3Brounded%3D0%3B%22%20vertex%3D%221%22%20parent%3D%221%22%3E%3CmxGeometry%20x%3D%22480%22%20y%3D%221130%22%20width%3D%2260%22%20height%3D%2230%22%20as%3D%22geometry%22%2F%3E%3C%2FmxCell%3E%3C%2Froot%3E%3C%2FmxGraphModel%3E&lt;/span&gt;" style="rounded=0;whiteSpace=wrap;html=1;" parent="1" vertex="1">
          <mxGeometry x="260" y="1130" width="520" height="490" as="geometry" />
        </mxCell>
        <mxCell id="_0ivKh7NQWCfHdYWTmic-14" value="" style="rounded=0;whiteSpace=wrap;html=1;" parent="1" vertex="1">
          <mxGeometry x="20" y="1780" width="790" height="110" as="geometry" />
        </mxCell>
        <mxCell id="_0ivKh7NQWCfHdYWTmic-4" value="&amp;nbsp;poster" style="text;html=1;strokeColor=none;fillColor=none;align=center;verticalAlign=middle;whiteSpace=wrap;rounded=0;" parent="1" vertex="1">
          <mxGeometry x="480" y="1169" width="60" height="30" as="geometry" />
        </mxCell>
        <mxCell id="_0ivKh7NQWCfHdYWTmic-6" value="copyrights" style="rounded=0;whiteSpace=wrap;html=1;" parent="1" vertex="1">
          <mxGeometry x="19" y="1890" width="789" height="40" as="geometry" />
        </mxCell>
        <mxCell id="_0ivKh7NQWCfHdYWTmic-7" value="" style="ellipse;whiteSpace=wrap;html=1;aspect=fixed;" parent="1" vertex="1">
          <mxGeometry x="120" y="1810" width="30" height="30" as="geometry" />
        </mxCell>
        <mxCell id="_0ivKh7NQWCfHdYWTmic-8" value="" style="ellipse;whiteSpace=wrap;html=1;aspect=fixed;" parent="1" vertex="1">
          <mxGeometry x="670" y="1810" width="30" height="30" as="geometry" />
        </mxCell>
        <mxCell id="_0ivKh7NQWCfHdYWTmic-9" value="" style="ellipse;whiteSpace=wrap;html=1;aspect=fixed;" parent="1" vertex="1">
          <mxGeometry x="210" y="1810" width="30" height="30" as="geometry" />
        </mxCell>
        <mxCell id="_0ivKh7NQWCfHdYWTmic-10" value="" style="ellipse;whiteSpace=wrap;html=1;aspect=fixed;" parent="1" vertex="1">
          <mxGeometry x="570" y="1810" width="30" height="30" as="geometry" />
        </mxCell>
        <mxCell id="_0ivKh7NQWCfHdYWTmic-11" value="" style="ellipse;whiteSpace=wrap;html=1;aspect=fixed;" parent="1" vertex="1">
          <mxGeometry x="480" y="1810" width="30" height="30" as="geometry" />
        </mxCell>
        <mxCell id="_0ivKh7NQWCfHdYWTmic-12" value="" style="ellipse;whiteSpace=wrap;html=1;aspect=fixed;" parent="1" vertex="1">
          <mxGeometry x="384" y="1810" width="30" height="30" as="geometry" />
        </mxCell>
        <mxCell id="_0ivKh7NQWCfHdYWTmic-13" value="" style="ellipse;whiteSpace=wrap;html=1;aspect=fixed;" parent="1" vertex="1">
          <mxGeometry x="290" y="1810" width="30" height="30" as="geometry" />
        </mxCell>
        <mxCell id="kD-ZsTbzd4Z8V4PyEGVh-4" value="" style="rounded=0;whiteSpace=wrap;html=1;" vertex="1" parent="1">
          <mxGeometry x="80" y="480" width="300" height="570" as="geometry" />
        </mxCell>
        <mxCell id="kD-ZsTbzd4Z8V4PyEGVh-6" value="" style="rounded=1;whiteSpace=wrap;html=1;" vertex="1" parent="1">
          <mxGeometry x="420" y="810" width="330" height="110" as="geometry" />
        </mxCell>
        <mxCell id="kD-ZsTbzd4Z8V4PyEGVh-7" value="" style="rounded=1;whiteSpace=wrap;html=1;" vertex="1" parent="1">
          <mxGeometry x="422" y="940" width="330" height="110" as="geometry" />
        </mxCell>
      </root>
    </mxGraphModel>
  </diagram>
</mxfile>
